{
	"asset":{
		"generator":"Khronos glTF Blender I/O v4.4.56",
		"version":"2.0"
	},
	"extensionsUsed":[
		"KHR_materials_specular",
		"KHR_materials_ior"
	],
	"scene":0,
	"scenes":[
		{
			"name":"Scene",
			"nodes":[
				0,
				1,
				2
			]
		}
	],
	"nodes":[
		{
			"mesh":0,
			"name":"Car_Cube.001",
			"rotation":[
				0,
				-0.7071068286895752,
				0.7071068286895752,
				1.1520235432271875e-07
			],
			"scale":[
				0.7453861832618713,
				0.7453861832618713,
				0.7453861832618713
			],
			"translation":[
				-1.338438630104065,
				0,
				-0.37470126152038574
			]
		},
		{
			"mesh":1,
			"name":"building_034",
			"scale":[
				0.6417088508605957,
				0.6417088508605957,
				0.619181215763092
			],
			"translation":[
				4.642965316772461,
				0,
				-2.431691884994507
			]
		},
		{
			"mesh":2,
			"name":"Circle.003",
			"rotation":[
				0,
				0.7129219770431519,
				0,
				0.7012433409690857
			],
			"scale":[
				2.6670901775360107,
				1.7370411157608032,
				2.6670901775360107
			],
			"translation":[
				2.514592409133911,
				-0.024936150759458542,
				-5.9117937088012695
			]
		}
	],
	"materials":[
		{
			"doubleSided":true,
			"name":"Body",
			"pbrMetallicRoughness":{
				"baseColorFactor":[
					1,
					0.10000000149011612,
					0.10000000149011612,
					1
				],
				"metallicFactor":0,
				"roughnessFactor":0.6900347471237183
			}
		},
		{
			"doubleSided":true,
			"extensions":{
				"KHR_materials_specular":{
					"specularFactor":0
				},
				"KHR_materials_ior":{
					"ior":1
				}
			},
			"name":"Black",
			"pbrMetallicRoughness":{
				"baseColorFactor":[
					0,
					0,
					0,
					1
				],
				"metallicFactor":0,
				"roughnessFactor":0.6900347471237183
			}
		},
		{
			"doubleSided":true,
			"extensions":{
				"KHR_materials_specular":{
					"specularColorFactor":[
						2.0,
						2.0,
						2.0
					]
				},
				"KHR_materials_ior":{
					"ior":1
				}
			},
			"name":"Window",
			"pbrMetallicRoughness":{
				"baseColorFactor":[
					0,
					0,
					0,
					1
				],
				"metallicFactor":0,
				"roughnessFactor":0.6900347471237183
			}
		},
		{
			"doubleSided":true,
			"extensions":{
				"KHR_materials_specular":{
					"specularFactor":0
				},
				"KHR_materials_ior":{
					"ior":1
				}
			},
			"name":"Bumpers",
			"pbrMetallicRoughness":{
				"baseColorFactor":[
					0.05858900025486946,
					0.05858900025486946,
					0.05858900025486946,
					1
				],
				"metallicFactor":0,
				"roughnessFactor":0.6900347471237183
			}
		},
		{
			"doubleSided":true,
			"extensions":{
				"KHR_materials_specular":{
					"specularFactor":0
				},
				"KHR_materials_ior":{
					"ior":1
				}
			},
			"name":"Lights",
			"pbrMetallicRoughness":{
				"metallicFactor":0,
				"roughnessFactor":0.6900347471237183
			}
		},
		{
			"doubleSided":true,
			"extensions":{
				"KHR_materials_specular":{
					"specularFactor":0
				},
				"KHR_materials_ior":{
					"ior":1
				}
			},
			"name":"Bottom",
			"pbrMetallicRoughness":{
				"baseColorFactor":[
					0,
					0,
					0,
					1
				],
				"metallicFactor":0,
				"roughnessFactor":0.6900347471237183
			}
		},
		{
			"doubleSided":true,
			"name":"Tires",
			"pbrMetallicRoughness":{
				"baseColorFactor":[
					0,
					0,
					0,
					1
				],
				"metallicFactor":0,
				"roughnessFactor":0.6900347471237183
			}
		},
		{
			"doubleSided":true,
			"name":"Wheels",
			"pbrMetallicRoughness":{
				"baseColorFactor":[
					0.492141991853714,
					0.492141991853714,
					0.492141991853714,
					1
				],
				"metallicFactor":0,
				"roughnessFactor":0.6900347471237183
			}
		},
		{
			"alphaMode":"BLEND",
			"doubleSided":true,
			"extensions":{
				"KHR_materials_specular":{
					"specularFactor":0
				},
				"KHR_materials_ior":{
					"ior":1.4500000476837158
				}
			},
			"name":"Material",
			"pbrMetallicRoughness":{
				"baseColorFactor":[
					0.800000011920929,
					0.800000011920929,
					0.800000011920929,
					0.10000000149011612
				],
				"metallicFactor":0,
				"roughnessFactor":0.5
			}
		},
		{
			"doubleSided":true,
			"name":"Material.327",
			"pbrMetallicRoughness":{
				"baseColorFactor":[
					0.03521100804209709,
					0.03521100804209709,
					0.03521100804209709,
					1
				],
				"metallicFactor":0.10000000149011612,
				"roughnessFactor":0.5
			}
		}
	],
	"meshes":[
		{
			"name":"Car_Cube.001",
			"primitives":[
				{
					"attributes":{
						"POSITION":0,
						"NORMAL":1
					},
					"indices":2,
					"material":0
				},
				{
					"attributes":{
						"POSITION":3,
						"NORMAL":4
					},
					"indices":5,
					"material":1
				},
				{
					"attributes":{
						"POSITION":6,
						"NORMAL":7
					},
					"indices":8,
					"material":2
				},
				{
					"attributes":{
						"POSITION":9,
						"NORMAL":10
					},
					"indices":11,
					"material":3
				},
				{
					"attributes":{
						"POSITION":12,
						"NORMAL":13
					},
					"indices":14,
					"material":4
				},
				{
					"attributes":{
						"POSITION":15,
						"NORMAL":16
					},
					"indices":17,
					"material":5
				},
				{
					"attributes":{
						"POSITION":18,
						"NORMAL":19
					},
					"indices":20,
					"material":6
				},
				{
					"attributes":{
						"POSITION":21,
						"NORMAL":22
					},
					"indices":23,
					"material":7
				}
			]
		},
		{
			"name":"building_034_mesh",
			"primitives":[
				{
					"attributes":{
						"POSITION":24,
						"NORMAL":25,
						"TEXCOORD_0":26
					},
					"indices":27,
					"material":8
				}
			]
		},
		{
			"name":"Circle.003",
			"primitives":[
				{
					"attributes":{
						"POSITION":28,
						"NORMAL":29
					},
					"indices":30,
					"material":9
				}
			]
		}
	],
	"accessors":[
		{
			"bufferView":0,
			"componentType":5126,
			"count":278,
			"max":[
				1.0074429512023926,
				2.24019193649292,
				-0.45208001136779785
			],
			"min":[
				-0.9925569891929626,
				-2.1748080253601074,
				-1.5899970531463623
			],
			"type":"VEC3"
		},
		{
			"bufferView":1,
			"componentType":5126,
			"count":278,
			"type":"VEC3"
		},
		{
			"bufferView":2,
			"componentType":5123,
			"count":606,
			"type":"SCALAR"
		},
		{
			"bufferView":3,
			"componentType":5126,
			"count":80,
			"max":[
				0.9616619944572449,
				0.8227229714393616,
				-1.013996958732605
			],
			"min":[
				-0.9467750191688538,
				-1.6285890340805054,
				-1.551496982574463
			],
			"type":"VEC3"
		},
		{
			"bufferView":4,
			"componentType":5126,
			"count":80,
			"type":"VEC3"
		},
		{
			"bufferView":5,
			"componentType":5123,
			"count":168,
			"type":"SCALAR"
		},
		{
			"bufferView":6,
			"componentType":5126,
			"count":100,
			"max":[
				0.9616619944572449,
				0.8075029850006104,
				-1.025622010231018
			],
			"min":[
				-0.9467750191688538,
				-1.6203060150146484,
				-1.5380719900131226
			],
			"type":"VEC3"
		},
		{
			"bufferView":7,
			"componentType":5126,
			"count":100,
			"type":"VEC3"
		},
		{
			"bufferView":8,
			"componentType":5123,
			"count":186,
			"type":"SCALAR"
		},
		{
			"bufferView":9,
			"componentType":5126,
			"count":157,
			"max":[
				1.0574430227279663,
				2.3901920318603516,
				-0.2999970018863678
			],
			"min":[
				-1.0425570011138916,
				-2.274807929992676,
				-0.7624970078468323
			],
			"type":"VEC3"
		},
		{
			"bufferView":10,
			"componentType":5126,
			"count":157,
			"type":"VEC3"
		},
		{
			"bufferView":11,
			"componentType":5123,
			"count":480,
			"type":"SCALAR"
		},
		{
			"bufferView":12,
			"componentType":5126,
			"count":8,
			"max":[
				0.9682509899139404,
				2.187824010848999,
				-0.6798250079154968
			],
			"min":[
				-0.953354001045227,
				2.06032395362854,
				-0.9317010045051575
			],
			"type":"VEC3"
		},
		{
			"bufferView":13,
			"componentType":5126,
			"count":8,
			"type":"VEC3"
		},
		{
			"bufferView":14,
			"componentType":5123,
			"count":12,
			"type":"SCALAR"
		},
		{
			"bufferView":15,
			"componentType":5126,
			"count":35,
			"max":[
				0.9824429750442505,
				2.225192070007324,
				-0.2999970018863678
			],
			"min":[
				-0.9675570130348206,
				-2.1748080253601074,
				-0.2999970018863678
			],
			"type":"VEC3"
		},
		{
			"bufferView":16,
			"componentType":5126,
			"count":35,
			"type":"VEC3"
		},
		{
			"bufferView":17,
			"componentType":5123,
			"count":144,
			"type":"SCALAR"
		},
		{
			"bufferView":18,
			"componentType":5126,
			"count":1024,
			"max":[
				0.9999430179595947,
				1.6851919889450073,
				3.000000106112566e-06
			],
			"min":[
				-0.98505699634552,
				-1.6748080253601074,
				-0.7999969720840454
			],
			"type":"VEC3"
		},
		{
			"bufferView":19,
			"componentType":5126,
			"count":1024,
			"type":"VEC3"
		},
		{
			"bufferView":20,
			"componentType":5123,
			"count":5376,
			"type":"SCALAR"
		},
		{
			"bufferView":21,
			"componentType":5126,
			"count":256,
			"max":[
				0.9856929779052734,
				1.5416920185089111,
				-0.14349700510501862
			],
			"min":[
				-0.9708070158958435,
				-1.5313080549240112,
				-0.6564970016479492
			],
			"type":"VEC3"
		},
		{
			"bufferView":22,
			"componentType":5126,
			"count":256,
			"type":"VEC3"
		},
		{
			"bufferView":23,
			"componentType":5123,
			"count":720,
			"type":"SCALAR"
		},
		{
			"bufferView":24,
			"componentType":5126,
			"count":108,
			"max":[
				4.5,
				6,
				6
			],
			"min":[
				-4.5,
				0,
				-6
			],
			"type":"VEC3"
		},
		{
			"bufferView":25,
			"componentType":5126,
			"count":108,
			"type":"VEC3"
		},
		{
			"bufferView":26,
			"componentType":5126,
			"count":108,
			"type":"VEC2"
		},
		{
			"bufferView":27,
			"componentType":5123,
			"count":246,
			"type":"SCALAR"
		},
		{
			"bufferView":28,
			"componentType":5126,
			"count":53,
			"max":[
				2.344698905944824,
				0.026079803705215454,
				2.9810686111450195
			],
			"min":[
				-6.563365936279297,
				-0.0017767579993233085,
				-2.329833507537842
			],
			"type":"VEC3"
		},
		{
			"bufferView":29,
			"componentType":5126,
			"count":53,
			"type":"VEC3"
		},
		{
			"bufferView":30,
			"componentType":5123,
			"count":102,
			"type":"SCALAR"
		}
	],
	"bufferViews":[
		{
			"buffer":0,
			"byteLength":3336,
			"byteOffset":0,
			"target":34962
		},
		{
			"buffer":0,
			"byteLength":3336,
			"byteOffset":3336,
			"target":34962
		},
		{
			"buffer":0,
			"byteLength":1212,
			"byteOffset":6672,
			"target":34963
		},
		{
			"buffer":0,
			"byteLength":960,
			"byteOffset":7884,
			"target":34962
		},
		{
			"buffer":0,
			"byteLength":960,
			"byteOffset":8844,
			"target":34962
		},
		{
			"buffer":0,
			"byteLength":336,
			"byteOffset":9804,
			"target":34963
		},
		{
			"buffer":0,
			"byteLength":1200,
			"byteOffset":10140,
			"target":34962
		},
		{
			"buffer":0,
			"byteLength":1200,
			"byteOffset":11340,
			"target":34962
		},
		{
			"buffer":0,
			"byteLength":372,
			"byteOffset":12540,
			"target":34963
		},
		{
			"buffer":0,
			"byteLength":1884,
			"byteOffset":12912,
			"target":34962
		},
		{
			"buffer":0,
			"byteLength":1884,
			"byteOffset":14796,
			"target":34962
		},
		{
			"buffer":0,
			"byteLength":960,
			"byteOffset":16680,
			"target":34963
		},
		{
			"buffer":0,
			"byteLength":96,
			"byteOffset":17640,
			"target":34962
		},
		{
			"buffer":0,
			"byteLength":96,
			"byteOffset":17736,
			"target":34962
		},
		{
			"buffer":0,
			"byteLength":24,
			"byteOffset":17832,
			"target":34963
		},
		{
			"buffer":0,
			"byteLength":420,
			"byteOffset":17856,
			"target":34962
		},
		{
			"buffer":0,
			"byteLength":420,
			"byteOffset":18276,
			"target":34962
		},
		{
			"buffer":0,
			"byteLength":288,
			"byteOffset":18696,
			"target":34963
		},
		{
			"buffer":0,
			"byteLength":12288,
			"byteOffset":18984,
			"target":34962
		},
		{
			"buffer":0,
			"byteLength":12288,
			"byteOffset":31272,
			"target":34962
		},
		{
			"buffer":0,
			"byteLength":10752,
			"byteOffset":43560,
			"target":34963
		},
		{
			"buffer":0,
			"byteLength":3072,
			"byteOffset":54312,
			"target":34962
		},
		{
			"buffer":0,
			"byteLength":3072,
			"byteOffset":57384,
			"target":34962
		},
		{
			"buffer":0,
			"byteLength":1440,
			"byteOffset":60456,
			"target":34963
		},
		{
			"buffer":0,
			"byteLength":1296,
			"byteOffset":61896,
			"target":34962
		},
		{
			"buffer":0,
			"byteLength":1296,
			"byteOffset":63192,
			"target":34962
		},
		{
			"buffer":0,
			"byteLength":864,
			"byteOffset":64488,
			"target":34962
		},
		{
			"buffer":0,
			"byteLength":492,
			"byteOffset":65352,
			"target":34963
		},
		{
			"buffer":0,
			"byteLength":636,
			"byteOffset":65844,
			"target":34962
		},
		{
			"buffer":0,
			"byteLength":636,
			"byteOffset":66480,
			"target":34962
		},
		{
			"buffer":0,
			"byteLength":204,
			"byteOffset":67116,
			"target":34963
		}
	],
	"buffers":[
		{
			"byteLength":67320,
			"uri":"scene.bin"
		}
	]
}
